<mxfile host="app.diagrams.net" modified="2024-06-24T12:58:12.271Z" agent="Mozilla/5.0 (Windows NT 10.0; Win64; x64) AppleWebKit/537.36 (KHTML, like Gecko) Chrome/110.0.0.0 Safari/537.36" etag="7jsp0V0aHzFFbPEysfSz" version="24.6.0" type="github">
  <diagram name="Page-1" id="52a04d89-c75d-2922-d76d-85b35f80e030">
    <mxGraphModel dx="1409" dy="711" grid="1" gridSize="10" guides="1" tooltips="1" connect="1" arrows="1" fold="1" page="1" pageScale="1" pageWidth="1100" pageHeight="850" background="none" math="0" shadow="0">
      <root>
        <mxCell id="0" />
        <mxCell id="1" parent="0" />
        <mxCell id="kcyztwDSL00C7o8e_8Dl-47" style="edgeStyle=orthogonalEdgeStyle;rounded=1;orthogonalLoop=1;jettySize=auto;html=1;curved=0;" edge="1" parent="1" source="21ea969265ad0168-30" target="kcyztwDSL00C7o8e_8Dl-5">
          <mxGeometry relative="1" as="geometry">
            <Array as="points">
              <mxPoint x="600" y="80" />
              <mxPoint x="600" y="195" />
            </Array>
          </mxGeometry>
        </mxCell>
        <mxCell id="kcyztwDSL00C7o8e_8Dl-48" style="edgeStyle=orthogonalEdgeStyle;rounded=1;orthogonalLoop=1;jettySize=auto;html=1;curved=0;" edge="1" parent="1" source="21ea969265ad0168-30" target="1fdf3b25b50cf41e-7">
          <mxGeometry relative="1" as="geometry" />
        </mxCell>
        <mxCell id="21ea969265ad0168-30" value="Local JSONs" style="html=1;rounded=0;shadow=0;comic=0;labelBackgroundColor=none;strokeWidth=2;fontFamily=Verdana;fontSize=12;align=center;shape=mxgraph.ios7ui.horLines;" parent="1" vertex="1">
          <mxGeometry x="430" y="55" width="135" height="50" as="geometry" />
        </mxCell>
        <mxCell id="kcyztwDSL00C7o8e_8Dl-37" style="edgeStyle=orthogonalEdgeStyle;rounded=1;orthogonalLoop=1;jettySize=auto;html=1;curved=0;" edge="1" parent="1" source="17472293e6e8944d-4" target="1fdf3b25b50cf41e-7">
          <mxGeometry relative="1" as="geometry">
            <Array as="points">
              <mxPoint x="690" y="515" />
              <mxPoint x="690" y="80" />
            </Array>
          </mxGeometry>
        </mxCell>
        <mxCell id="17472293e6e8944d-4" value="CM database&amp;nbsp;&lt;div&gt;(PostgreSQL)&lt;/div&gt;" style="html=1;rounded=0;shadow=0;comic=0;labelBackgroundColor=none;strokeWidth=2;fontFamily=Verdana;fontSize=12;align=center;shape=mxgraph.ios7ui.horLines;" parent="1" vertex="1">
          <mxGeometry x="430" y="490" width="135" height="50" as="geometry" />
        </mxCell>
        <mxCell id="1fdf3b25b50cf41e-27" style="edgeStyle=none;html=1;labelBackgroundColor=none;startFill=0;startSize=8;endFill=1;endSize=8;fontFamily=Verdana;fontSize=12;" parent="1" source="17472293e6e8944d-30" target="1fdf3b25b50cf41e-1" edge="1">
          <mxGeometry relative="1" as="geometry" />
        </mxCell>
        <mxCell id="17472293e6e8944d-30" value="Croc API" style="whiteSpace=wrap;html=1;rounded=0;shadow=0;comic=0;labelBackgroundColor=none;strokeWidth=1;fontFamily=Verdana;fontSize=12;align=center;" parent="1" vertex="1">
          <mxGeometry x="60" y="55" width="120" height="50" as="geometry" />
        </mxCell>
        <mxCell id="1fdf3b25b50cf41e-1" value="1.1" style="swimlane;html=1;fontStyle=0;childLayout=stackLayout;horizontal=1;startSize=26;fillColor=#e0e0e0;horizontalStack=0;resizeParent=1;resizeLast=0;collapsible=1;marginBottom=0;swimlaneFillColor=#ffffff;align=center;rounded=1;shadow=0;comic=0;labelBackgroundColor=none;strokeWidth=1;fontFamily=Verdana;fontSize=12" parent="1" vertex="1">
          <mxGeometry x="240" y="37" width="140" height="86" as="geometry" />
        </mxCell>
        <mxCell id="1fdf3b25b50cf41e-2" value="DescribeInstances&lt;div&gt;DescribeVolumes&lt;/div&gt;&lt;div&gt;GetMetric&lt;/div&gt;" style="text;html=1;strokeColor=none;fillColor=none;spacingLeft=4;spacingRight=4;whiteSpace=wrap;overflow=hidden;rotatable=0;points=[[0,0.5],[1,0.5]];portConstraint=eastwest;align=center;" parent="1fdf3b25b50cf41e-1" vertex="1">
          <mxGeometry y="26" width="140" height="54" as="geometry" />
        </mxCell>
        <mxCell id="1fdf3b25b50cf41e-9" value="4.0" style="swimlane;html=1;fontStyle=0;childLayout=stackLayout;horizontal=1;startSize=26;fillColor=#e0e0e0;horizontalStack=0;resizeParent=1;resizeLast=0;collapsible=1;marginBottom=0;swimlaneFillColor=#ffffff;align=center;rounded=1;shadow=0;comic=0;labelBackgroundColor=none;strokeWidth=1;fontFamily=Verdana;fontSize=12" parent="1" vertex="1">
          <mxGeometry x="770" y="485" width="140" height="60" as="geometry">
            <mxRectangle x="250" y="153" width="60" height="30" as="alternateBounds" />
          </mxGeometry>
        </mxCell>
        <mxCell id="1fdf3b25b50cf41e-10" value="upload CSVs" style="text;html=1;strokeColor=none;fillColor=none;spacingLeft=4;spacingRight=4;whiteSpace=wrap;overflow=hidden;rotatable=0;points=[[0,0.5],[1,0.5]];portConstraint=eastwest;align=center;" parent="1fdf3b25b50cf41e-9" vertex="1">
          <mxGeometry y="26" width="140" height="34" as="geometry" />
        </mxCell>
        <mxCell id="1fdf3b25b50cf41e-7" value="3.1" style="swimlane;html=1;fontStyle=0;childLayout=stackLayout;horizontal=1;startSize=26;fillColor=#e0e0e0;horizontalStack=0;resizeParent=1;resizeLast=0;collapsible=1;marginBottom=0;swimlaneFillColor=#ffffff;align=center;rounded=1;shadow=0;comic=0;labelBackgroundColor=none;strokeWidth=1;fontFamily=Verdana;fontSize=12" parent="1" vertex="1">
          <mxGeometry x="770" y="45" width="140" height="70" as="geometry" />
        </mxCell>
        <mxCell id="1fdf3b25b50cf41e-8" value="Generate combined Instance.csv" style="text;html=1;strokeColor=none;fillColor=none;spacingLeft=4;spacingRight=4;whiteSpace=wrap;overflow=hidden;rotatable=0;points=[[0,0.5],[1,0.5]];portConstraint=eastwest;align=center;" parent="1fdf3b25b50cf41e-7" vertex="1">
          <mxGeometry y="26" width="140" height="40" as="geometry" />
        </mxCell>
        <mxCell id="1fdf3b25b50cf41e-45" style="edgeStyle=none;html=1;labelBackgroundColor=none;startFill=0;startSize=8;endFill=1;endSize=8;fontFamily=Verdana;fontSize=12;" parent="1" source="1fdf3b25b50cf41e-9" target="1fdf3b25b50cf41e-26" edge="1">
          <mxGeometry relative="1" as="geometry">
            <mxPoint x="507.1957671957673" y="677" as="sourcePoint" />
          </mxGeometry>
        </mxCell>
        <mxCell id="kcyztwDSL00C7o8e_8Dl-49" style="edgeStyle=orthogonalEdgeStyle;rounded=1;orthogonalLoop=1;jettySize=auto;html=1;curved=0;" edge="1" parent="1" source="kcyztwDSL00C7o8e_8Dl-2" target="kcyztwDSL00C7o8e_8Dl-5">
          <mxGeometry relative="1" as="geometry">
            <Array as="points">
              <mxPoint x="498" y="195" />
            </Array>
          </mxGeometry>
        </mxCell>
        <mxCell id="1fdf3b25b50cf41e-26" value="Yandex S3" style="whiteSpace=wrap;html=1;rounded=0;shadow=0;comic=0;labelBackgroundColor=none;strokeWidth=1;fontFamily=Verdana;fontSize=12;align=center;" parent="1" vertex="1">
          <mxGeometry x="955" y="490" width="120" height="50" as="geometry" />
        </mxCell>
        <mxCell id="kcyztwDSL00C7o8e_8Dl-36" style="edgeStyle=orthogonalEdgeStyle;rounded=1;orthogonalLoop=1;jettySize=auto;html=1;curved=0;" edge="1" parent="1" source="kcyztwDSL00C7o8e_8Dl-2" target="1fdf3b25b50cf41e-7">
          <mxGeometry relative="1" as="geometry">
            <Array as="points">
              <mxPoint x="498" y="180" />
              <mxPoint x="730" y="180" />
              <mxPoint x="730" y="80" />
            </Array>
          </mxGeometry>
        </mxCell>
        <mxCell id="kcyztwDSL00C7o8e_8Dl-50" style="edgeStyle=orthogonalEdgeStyle;rounded=1;orthogonalLoop=1;jettySize=auto;html=1;curved=0;" edge="1" parent="1" source="kcyztwDSL00C7o8e_8Dl-2" target="kcyztwDSL00C7o8e_8Dl-39">
          <mxGeometry relative="1" as="geometry">
            <Array as="points">
              <mxPoint x="530" y="315" />
            </Array>
          </mxGeometry>
        </mxCell>
        <mxCell id="kcyztwDSL00C7o8e_8Dl-2" value="Local JSONs" style="html=1;rounded=0;shadow=0;comic=0;labelBackgroundColor=none;strokeWidth=2;fontFamily=Verdana;fontSize=12;align=center;shape=mxgraph.ios7ui.horLines;" vertex="1" parent="1">
          <mxGeometry x="430" y="218" width="135" height="50" as="geometry" />
        </mxCell>
        <mxCell id="kcyztwDSL00C7o8e_8Dl-28" style="edgeStyle=orthogonalEdgeStyle;rounded=1;orthogonalLoop=1;jettySize=auto;html=1;entryX=0;entryY=0.5;entryDx=0;entryDy=0;curved=0;" edge="1" parent="1" source="kcyztwDSL00C7o8e_8Dl-3" target="kcyztwDSL00C7o8e_8Dl-21">
          <mxGeometry relative="1" as="geometry" />
        </mxCell>
        <mxCell id="kcyztwDSL00C7o8e_8Dl-29" style="edgeStyle=orthogonalEdgeStyle;rounded=1;orthogonalLoop=1;jettySize=auto;html=1;curved=0;" edge="1" parent="1" source="kcyztwDSL00C7o8e_8Dl-3" target="kcyztwDSL00C7o8e_8Dl-16">
          <mxGeometry relative="1" as="geometry">
            <Array as="points">
              <mxPoint x="120" y="515" />
            </Array>
          </mxGeometry>
        </mxCell>
        <mxCell id="kcyztwDSL00C7o8e_8Dl-3" value="Cloud API" style="whiteSpace=wrap;html=1;rounded=0;shadow=0;comic=0;labelBackgroundColor=none;strokeWidth=1;fontFamily=Verdana;fontSize=12;align=center;" vertex="1" parent="1">
          <mxGeometry x="60" y="218" width="120" height="50" as="geometry" />
        </mxCell>
        <mxCell id="kcyztwDSL00C7o8e_8Dl-51" style="edgeStyle=orthogonalEdgeStyle;rounded=0;orthogonalLoop=1;jettySize=auto;html=1;" edge="1" parent="1" source="kcyztwDSL00C7o8e_8Dl-5" target="1fdf3b25b50cf41e-9">
          <mxGeometry relative="1" as="geometry">
            <Array as="points">
              <mxPoint x="840" y="260" />
              <mxPoint x="840" y="260" />
            </Array>
          </mxGeometry>
        </mxCell>
        <mxCell id="kcyztwDSL00C7o8e_8Dl-11" style="edgeStyle=orthogonalEdgeStyle;html=1;labelBackgroundColor=none;startFill=0;startSize=8;endFill=1;endSize=8;fontFamily=Verdana;fontSize=12;" edge="1" parent="1" source="1fdf3b25b50cf41e-7" target="1fdf3b25b50cf41e-9">
          <mxGeometry relative="1" as="geometry">
            <Array as="points">
              <mxPoint x="790" y="200" />
              <mxPoint x="790" y="200" />
            </Array>
            <mxPoint x="600" y="497" as="sourcePoint" />
            <mxPoint x="883" y="522" as="targetPoint" />
          </mxGeometry>
        </mxCell>
        <mxCell id="kcyztwDSL00C7o8e_8Dl-34" style="edgeStyle=orthogonalEdgeStyle;rounded=0;orthogonalLoop=1;jettySize=auto;html=1;" edge="1" parent="1" source="kcyztwDSL00C7o8e_8Dl-16" target="17472293e6e8944d-4">
          <mxGeometry relative="1" as="geometry" />
        </mxCell>
        <mxCell id="kcyztwDSL00C7o8e_8Dl-16" value="2.2" style="swimlane;html=1;fontStyle=0;childLayout=stackLayout;horizontal=1;startSize=26;fillColor=#e0e0e0;horizontalStack=0;resizeParent=1;resizeLast=0;collapsible=1;marginBottom=0;swimlaneFillColor=#ffffff;align=center;rounded=1;shadow=0;comic=0;labelBackgroundColor=none;strokeWidth=1;fontFamily=Verdana;fontSize=12" vertex="1" parent="1">
          <mxGeometry x="230" y="490" width="140" height="50" as="geometry" />
        </mxCell>
        <mxCell id="kcyztwDSL00C7o8e_8Dl-17" value="Get VM current metrics" style="text;html=1;strokeColor=none;fillColor=none;spacingLeft=4;spacingRight=4;whiteSpace=wrap;overflow=hidden;rotatable=0;points=[[0,0.5],[1,0.5]];portConstraint=eastwest;align=center;" vertex="1" parent="kcyztwDSL00C7o8e_8Dl-16">
          <mxGeometry y="26" width="140" height="24" as="geometry" />
        </mxCell>
        <mxCell id="kcyztwDSL00C7o8e_8Dl-33" style="edgeStyle=orthogonalEdgeStyle;rounded=0;orthogonalLoop=1;jettySize=auto;html=1;" edge="1" parent="1" source="kcyztwDSL00C7o8e_8Dl-18" target="kcyztwDSL00C7o8e_8Dl-2">
          <mxGeometry relative="1" as="geometry" />
        </mxCell>
        <mxCell id="kcyztwDSL00C7o8e_8Dl-18" value="2.1" style="swimlane;html=1;fontStyle=0;childLayout=stackLayout;horizontal=1;startSize=26;fillColor=#e0e0e0;horizontalStack=0;resizeParent=1;resizeLast=0;collapsible=1;marginBottom=0;swimlaneFillColor=#ffffff;align=center;rounded=1;shadow=0;comic=0;labelBackgroundColor=none;strokeWidth=1;fontFamily=Verdana;fontSize=12" vertex="1" parent="1">
          <mxGeometry x="240" y="200" width="140" height="86" as="geometry" />
        </mxCell>
        <mxCell id="kcyztwDSL00C7o8e_8Dl-19" value="Get list of vms&lt;div&gt;Get storage profiles&lt;/div&gt;&lt;div&gt;Get VM metadata&lt;/div&gt;" style="text;html=1;strokeColor=none;fillColor=none;spacingLeft=4;spacingRight=4;whiteSpace=wrap;overflow=hidden;rotatable=0;points=[[0,0.5],[1,0.5]];portConstraint=eastwest;align=center;" vertex="1" parent="kcyztwDSL00C7o8e_8Dl-18">
          <mxGeometry y="26" width="140" height="44" as="geometry" />
        </mxCell>
        <mxCell id="kcyztwDSL00C7o8e_8Dl-20" value="2.3" style="swimlane;html=1;fontStyle=0;childLayout=stackLayout;horizontal=1;startSize=26;fillColor=#e0e0e0;horizontalStack=0;resizeParent=1;resizeLast=0;collapsible=1;marginBottom=0;swimlaneFillColor=#ffffff;align=center;rounded=1;shadow=0;comic=0;labelBackgroundColor=none;strokeWidth=1;fontFamily=Verdana;fontSize=12" vertex="1" parent="1">
          <mxGeometry x="240" y="320" width="140" height="70" as="geometry" />
        </mxCell>
        <mxCell id="kcyztwDSL00C7o8e_8Dl-21" value="&lt;div&gt;Get VDC data&lt;/div&gt;&lt;div&gt;Get storage profile data&lt;/div&gt;" style="text;html=1;strokeColor=none;fillColor=none;spacingLeft=4;spacingRight=4;whiteSpace=wrap;overflow=hidden;rotatable=0;points=[[0,0.5],[1,0.5]];portConstraint=eastwest;align=center;" vertex="1" parent="kcyztwDSL00C7o8e_8Dl-20">
          <mxGeometry y="26" width="140" height="44" as="geometry" />
        </mxCell>
        <mxCell id="kcyztwDSL00C7o8e_8Dl-22" style="edgeStyle=none;html=1;labelBackgroundColor=none;startFill=0;startSize=8;endFill=1;endSize=8;fontFamily=Verdana;fontSize=12;exitX=1;exitY=0.5;exitDx=0;exitDy=0;" edge="1" parent="1" source="kcyztwDSL00C7o8e_8Dl-3" target="kcyztwDSL00C7o8e_8Dl-18">
          <mxGeometry relative="1" as="geometry">
            <mxPoint x="150" y="242.47000000000003" as="sourcePoint" />
            <mxPoint x="240" y="243.47000000000003" as="targetPoint" />
          </mxGeometry>
        </mxCell>
        <mxCell id="kcyztwDSL00C7o8e_8Dl-38" style="edgeStyle=orthogonalEdgeStyle;rounded=1;orthogonalLoop=1;jettySize=auto;html=1;curved=0;" edge="1" parent="1" source="kcyztwDSL00C7o8e_8Dl-21" target="kcyztwDSL00C7o8e_8Dl-2">
          <mxGeometry relative="1" as="geometry">
            <Array as="points">
              <mxPoint x="470" y="368" />
            </Array>
          </mxGeometry>
        </mxCell>
        <mxCell id="kcyztwDSL00C7o8e_8Dl-42" style="edgeStyle=orthogonalEdgeStyle;rounded=1;orthogonalLoop=1;jettySize=auto;html=1;curved=0;" edge="1" parent="1" source="kcyztwDSL00C7o8e_8Dl-39" target="1fdf3b25b50cf41e-9">
          <mxGeometry relative="1" as="geometry">
            <Array as="points">
              <mxPoint x="890" y="410" />
              <mxPoint x="890" y="410" />
            </Array>
          </mxGeometry>
        </mxCell>
        <mxCell id="kcyztwDSL00C7o8e_8Dl-39" value="3.3" style="swimlane;html=1;fontStyle=0;childLayout=stackLayout;horizontal=1;startSize=26;fillColor=#e0e0e0;horizontalStack=0;resizeParent=1;resizeLast=0;collapsible=1;marginBottom=0;swimlaneFillColor=#ffffff;align=center;rounded=1;shadow=0;comic=0;labelBackgroundColor=none;strokeWidth=1;fontFamily=Verdana;fontSize=12" vertex="1" parent="1">
          <mxGeometry x="770" y="280" width="140" height="70" as="geometry" />
        </mxCell>
        <mxCell id="kcyztwDSL00C7o8e_8Dl-40" value="Generate VDC report (.csv)" style="text;html=1;strokeColor=none;fillColor=none;spacingLeft=4;spacingRight=4;whiteSpace=wrap;overflow=hidden;rotatable=0;points=[[0,0.5],[1,0.5]];portConstraint=eastwest;align=center;" vertex="1" parent="kcyztwDSL00C7o8e_8Dl-39">
          <mxGeometry y="26" width="140" height="40" as="geometry" />
        </mxCell>
        <mxCell id="kcyztwDSL00C7o8e_8Dl-44" style="edgeStyle=orthogonalEdgeStyle;rounded=0;orthogonalLoop=1;jettySize=auto;html=1;" edge="1" parent="1" source="1fdf3b25b50cf41e-1" target="21ea969265ad0168-30">
          <mxGeometry relative="1" as="geometry" />
        </mxCell>
        <mxCell id="kcyztwDSL00C7o8e_8Dl-5" value="3.2" style="swimlane;html=1;fontStyle=0;childLayout=stackLayout;horizontal=1;startSize=26;fillColor=#e0e0e0;horizontalStack=0;resizeParent=1;resizeLast=0;collapsible=1;marginBottom=0;swimlaneFillColor=#ffffff;align=center;rounded=1;shadow=0;comic=0;labelBackgroundColor=none;strokeWidth=1;fontFamily=Verdana;fontSize=12" vertex="1" parent="1">
          <mxGeometry x="770" y="160" width="140" height="70" as="geometry" />
        </mxCell>
        <mxCell id="kcyztwDSL00C7o8e_8Dl-6" value="Generate combined Volumes.csv" style="text;html=1;strokeColor=none;fillColor=none;spacingLeft=4;spacingRight=4;whiteSpace=wrap;overflow=hidden;rotatable=0;points=[[0,0.5],[1,0.5]];portConstraint=eastwest;align=center;" vertex="1" parent="kcyztwDSL00C7o8e_8Dl-5">
          <mxGeometry y="26" width="140" height="44" as="geometry" />
        </mxCell>
      </root>
    </mxGraphModel>
  </diagram>
</mxfile>
